<mxfile host="Electron" modified="2024-05-22T09:43:02.924Z" agent="Mozilla/5.0 (X11; Linux x86_64) AppleWebKit/537.36 (KHTML, like Gecko) draw.io/24.4.0 Chrome/120.0.6099.109 Electron/28.1.0 Safari/537.36" etag="uWxJuLNW2vyJMJh-f1H6" version="24.4.0" type="device">
  <diagram name="Pagina-1" id="gT2uS-0LTDdBFwaTmjf3">
    <mxGraphModel dx="770" dy="1942" grid="1" gridSize="10" guides="1" tooltips="1" connect="1" arrows="1" fold="1" page="1" pageScale="1" pageWidth="827" pageHeight="1169" math="0" shadow="0">
      <root>
        <mxCell id="0" />
        <mxCell id="1" parent="0" />
        <mxCell id="E2_kgH21EwWMTmpc-RUo-1" value="users&lt;br&gt;" style="rounded=0;whiteSpace=wrap;html=1;fontSize=16;" vertex="1" parent="1">
          <mxGeometry x="2067.5" y="57.5" width="120" height="50" as="geometry" />
        </mxCell>
        <mxCell id="E2_kgH21EwWMTmpc-RUo-2" value="" style="endArrow=none;html=1;rounded=0;fontSize=12;startSize=8;endSize=8;curved=1;entryX=0.25;entryY=0;entryDx=0;entryDy=0;" edge="1" parent="1" source="E2_kgH21EwWMTmpc-RUo-8" target="E2_kgH21EwWMTmpc-RUo-1">
          <mxGeometry width="50" height="50" relative="1" as="geometry">
            <mxPoint x="2047.5" y="50" as="sourcePoint" />
            <mxPoint x="1960" y="67.5" as="targetPoint" />
          </mxGeometry>
        </mxCell>
        <mxCell id="E2_kgH21EwWMTmpc-RUo-3" value="id&amp;nbsp;" style="text;html=1;strokeColor=none;fillColor=none;align=center;verticalAlign=middle;whiteSpace=wrap;rounded=0;fontSize=16;" vertex="1" parent="1">
          <mxGeometry x="2017.5" y="10" width="60" height="30" as="geometry" />
        </mxCell>
        <mxCell id="E2_kgH21EwWMTmpc-RUo-4" value="username&amp;nbsp;&lt;br&gt;" style="text;html=1;strokeColor=none;fillColor=none;align=center;verticalAlign=middle;whiteSpace=wrap;rounded=0;fontSize=16;" vertex="1" parent="1">
          <mxGeometry x="1980" y="97.5" width="60" height="30" as="geometry" />
        </mxCell>
        <mxCell id="E2_kgH21EwWMTmpc-RUo-5" value="password&lt;br&gt;" style="text;html=1;strokeColor=none;fillColor=none;align=center;verticalAlign=middle;whiteSpace=wrap;rounded=0;fontSize=16;" vertex="1" parent="1">
          <mxGeometry x="2220" y="140" width="60" height="30" as="geometry" />
        </mxCell>
        <mxCell id="E2_kgH21EwWMTmpc-RUo-6" value="" style="endArrow=none;html=1;rounded=0;fontSize=12;startSize=8;endSize=8;curved=1;entryX=1;entryY=0.25;entryDx=0;entryDy=0;exitX=0.001;exitY=0.662;exitDx=0;exitDy=0;exitPerimeter=0;" edge="1" parent="1" source="E2_kgH21EwWMTmpc-RUo-1" target="E2_kgH21EwWMTmpc-RUo-4">
          <mxGeometry width="50" height="50" relative="1" as="geometry">
            <mxPoint x="2100" y="57.5" as="sourcePoint" />
            <mxPoint x="2150" y="7.5" as="targetPoint" />
          </mxGeometry>
        </mxCell>
        <mxCell id="E2_kgH21EwWMTmpc-RUo-7" value="" style="endArrow=none;html=1;rounded=0;fontSize=12;startSize=8;endSize=8;curved=1;exitX=1;exitY=1;exitDx=0;exitDy=0;entryX=0.25;entryY=0;entryDx=0;entryDy=0;" edge="1" parent="1" source="E2_kgH21EwWMTmpc-RUo-1" target="E2_kgH21EwWMTmpc-RUo-5">
          <mxGeometry width="50" height="50" relative="1" as="geometry">
            <mxPoint x="2140" y="-12.5" as="sourcePoint" />
            <mxPoint x="2190" y="-62.5" as="targetPoint" />
          </mxGeometry>
        </mxCell>
        <mxCell id="E2_kgH21EwWMTmpc-RUo-8" value="" style="shape=waypoint;sketch=0;fillStyle=solid;size=6;pointerEvents=1;points=[];fillColor=none;resizable=0;rotatable=0;perimeter=centerPerimeter;snapToPoint=1;fontSize=16;" vertex="1" parent="1">
          <mxGeometry x="2035" y="30" width="20" height="20" as="geometry" />
        </mxCell>
        <mxCell id="E2_kgH21EwWMTmpc-RUo-9" value="(0,N)" style="text;html=1;strokeColor=none;fillColor=none;align=center;verticalAlign=middle;whiteSpace=wrap;rounded=0;fontSize=16;" vertex="1" parent="1">
          <mxGeometry x="2152.5" y="27.5" width="60" height="30" as="geometry" />
        </mxCell>
        <mxCell id="E2_kgH21EwWMTmpc-RUo-10" value="" style="endArrow=none;html=1;rounded=0;entryX=1;entryY=0.5;entryDx=0;entryDy=0;exitX=0;exitY=0.5;exitDx=0;exitDy=0;" edge="1" parent="1" source="E2_kgH21EwWMTmpc-RUo-11" target="E2_kgH21EwWMTmpc-RUo-1">
          <mxGeometry width="50" height="50" relative="1" as="geometry">
            <mxPoint x="2128" y="200" as="sourcePoint" />
            <mxPoint x="2160" y="160" as="targetPoint" />
          </mxGeometry>
        </mxCell>
        <mxCell id="E2_kgH21EwWMTmpc-RUo-11" value="" style="rhombus;whiteSpace=wrap;html=1;" vertex="1" parent="1">
          <mxGeometry x="2350" y="40" width="80" height="80" as="geometry" />
        </mxCell>
        <mxCell id="E2_kgH21EwWMTmpc-RUo-13" value="" style="endArrow=none;html=1;rounded=0;exitX=1;exitY=0.5;exitDx=0;exitDy=0;" edge="1" parent="1" source="E2_kgH21EwWMTmpc-RUo-11">
          <mxGeometry width="50" height="50" relative="1" as="geometry">
            <mxPoint x="2450" y="100" as="sourcePoint" />
            <mxPoint x="2520" y="80" as="targetPoint" />
          </mxGeometry>
        </mxCell>
        <mxCell id="E2_kgH21EwWMTmpc-RUo-16" value="data" style="rounded=0;whiteSpace=wrap;html=1;fontSize=16;" vertex="1" parent="1">
          <mxGeometry x="2520" y="55" width="100" height="50" as="geometry" />
        </mxCell>
        <mxCell id="E2_kgH21EwWMTmpc-RUo-17" value="" style="endArrow=none;html=1;rounded=0;fontSize=12;startSize=8;endSize=8;curved=1;entryX=0.25;entryY=0;entryDx=0;entryDy=0;exitX=0.625;exitY=0.944;exitDx=0;exitDy=0;exitPerimeter=0;" edge="1" parent="1" source="E2_kgH21EwWMTmpc-RUo-18" target="E2_kgH21EwWMTmpc-RUo-16">
          <mxGeometry width="50" height="50" relative="1" as="geometry">
            <mxPoint x="2420" y="50" as="sourcePoint" />
            <mxPoint x="2470" as="targetPoint" />
          </mxGeometry>
        </mxCell>
        <mxCell id="E2_kgH21EwWMTmpc-RUo-18" value="name" style="text;html=1;strokeColor=none;fillColor=none;align=center;verticalAlign=middle;whiteSpace=wrap;rounded=0;fontSize=16;" vertex="1" parent="1">
          <mxGeometry x="2450" width="60" height="30" as="geometry" />
        </mxCell>
        <mxCell id="E2_kgH21EwWMTmpc-RUo-19" value="surname" style="text;html=1;strokeColor=none;fillColor=none;align=center;verticalAlign=middle;whiteSpace=wrap;rounded=0;fontSize=16;" vertex="1" parent="1">
          <mxGeometry x="2630" y="-12.5" width="60" height="30" as="geometry" />
        </mxCell>
        <mxCell id="E2_kgH21EwWMTmpc-RUo-20" value="address&lt;br&gt;" style="text;html=1;strokeColor=none;fillColor=none;align=center;verticalAlign=middle;whiteSpace=wrap;rounded=0;fontSize=16;" vertex="1" parent="1">
          <mxGeometry x="2440" y="105" width="60" height="30" as="geometry" />
        </mxCell>
        <mxCell id="E2_kgH21EwWMTmpc-RUo-21" value="phone_num" style="text;html=1;strokeColor=none;fillColor=none;align=center;verticalAlign=middle;whiteSpace=wrap;rounded=0;fontSize=16;" vertex="1" parent="1">
          <mxGeometry x="2640" y="105" width="60" height="30" as="geometry" />
        </mxCell>
        <mxCell id="E2_kgH21EwWMTmpc-RUo-22" value="" style="endArrow=none;html=1;rounded=0;fontSize=12;startSize=8;endSize=8;curved=1;entryX=0;entryY=0.75;entryDx=0;entryDy=0;exitX=1;exitY=0.5;exitDx=0;exitDy=0;" edge="1" parent="1" source="E2_kgH21EwWMTmpc-RUo-20" target="E2_kgH21EwWMTmpc-RUo-16">
          <mxGeometry width="50" height="50" relative="1" as="geometry">
            <mxPoint x="2430" y="130" as="sourcePoint" />
            <mxPoint x="2480" y="80" as="targetPoint" />
          </mxGeometry>
        </mxCell>
        <mxCell id="E2_kgH21EwWMTmpc-RUo-23" value="" style="endArrow=none;html=1;rounded=0;fontSize=12;startSize=8;endSize=8;curved=1;entryX=0.5;entryY=1;entryDx=0;entryDy=0;exitX=0.75;exitY=0;exitDx=0;exitDy=0;" edge="1" parent="1" source="E2_kgH21EwWMTmpc-RUo-16">
          <mxGeometry width="50" height="50" relative="1" as="geometry">
            <mxPoint x="2560" y="60" as="sourcePoint" />
            <mxPoint x="2640" y="25" as="targetPoint" />
          </mxGeometry>
        </mxCell>
        <mxCell id="E2_kgH21EwWMTmpc-RUo-24" value="" style="endArrow=none;html=1;rounded=0;fontSize=12;startSize=8;endSize=8;curved=1;entryX=1;entryY=0.75;entryDx=0;entryDy=0;exitX=0.5;exitY=0;exitDx=0;exitDy=0;" edge="1" parent="1" source="E2_kgH21EwWMTmpc-RUo-21" target="E2_kgH21EwWMTmpc-RUo-16">
          <mxGeometry width="50" height="50" relative="1" as="geometry">
            <mxPoint x="2660" y="110" as="sourcePoint" />
            <mxPoint x="2590" y="95" as="targetPoint" />
          </mxGeometry>
        </mxCell>
        <mxCell id="E2_kgH21EwWMTmpc-RUo-25" value="(0,N)" style="text;html=1;strokeColor=none;fillColor=none;align=center;verticalAlign=middle;whiteSpace=wrap;rounded=0;fontSize=16;" vertex="1" parent="1">
          <mxGeometry x="2625" y="55" width="60" height="30" as="geometry" />
        </mxCell>
        <mxCell id="E2_kgH21EwWMTmpc-RUo-26" value="" style="shape=flexArrow;endArrow=classic;html=1;rounded=0;" edge="1" parent="1">
          <mxGeometry width="50" height="50" relative="1" as="geometry">
            <mxPoint x="2130" y="280" as="sourcePoint" />
            <mxPoint x="2130" y="110" as="targetPoint" />
          </mxGeometry>
        </mxCell>
        <mxCell id="E2_kgH21EwWMTmpc-RUo-29" value="clients" style="rounded=0;whiteSpace=wrap;html=1;fontSize=16;" vertex="1" parent="1">
          <mxGeometry x="1922.5" y="260" width="100" height="42.5" as="geometry" />
        </mxCell>
        <mxCell id="E2_kgH21EwWMTmpc-RUo-30" value="client_id" style="text;html=1;strokeColor=none;fillColor=none;align=center;verticalAlign=middle;whiteSpace=wrap;rounded=0;fontSize=16;" vertex="1" parent="1">
          <mxGeometry x="1990" y="190" width="60" height="30" as="geometry" />
        </mxCell>
        <mxCell id="E2_kgH21EwWMTmpc-RUo-31" value="" style="shape=waypoint;sketch=0;fillStyle=solid;size=6;pointerEvents=1;points=[];fillColor=none;resizable=0;rotatable=0;perimeter=centerPerimeter;snapToPoint=1;fontSize=16;" vertex="1" parent="1">
          <mxGeometry x="2010" y="205" width="20" height="20" as="geometry" />
        </mxCell>
        <mxCell id="E2_kgH21EwWMTmpc-RUo-32" value="" style="endArrow=none;html=1;rounded=0;fontSize=12;startSize=8;endSize=8;curved=1;entryX=0.25;entryY=0;entryDx=0;entryDy=0;exitX=1;exitY=0.75;exitDx=0;exitDy=0;" edge="1" parent="1" source="E2_kgH21EwWMTmpc-RUo-33" target="E2_kgH21EwWMTmpc-RUo-29">
          <mxGeometry width="50" height="50" relative="1" as="geometry">
            <mxPoint x="1885" y="275" as="sourcePoint" />
            <mxPoint x="1905" y="265" as="targetPoint" />
          </mxGeometry>
        </mxCell>
        <mxCell id="E2_kgH21EwWMTmpc-RUo-33" value="vat_number" style="text;html=1;strokeColor=none;fillColor=none;align=center;verticalAlign=middle;whiteSpace=wrap;rounded=0;fontSize=16;" vertex="1" parent="1">
          <mxGeometry x="1837.5" y="180" width="60" height="40" as="geometry" />
        </mxCell>
        <mxCell id="E2_kgH21EwWMTmpc-RUo-34" value="" style="endArrow=none;html=1;rounded=0;fontSize=12;startSize=8;endSize=8;curved=1;exitX=0.597;exitY=0.056;exitDx=0;exitDy=0;exitPerimeter=0;entryX=0;entryY=0.75;entryDx=0;entryDy=0;" edge="1" parent="1" source="E2_kgH21EwWMTmpc-RUo-35" target="E2_kgH21EwWMTmpc-RUo-29">
          <mxGeometry width="50" height="50" relative="1" as="geometry">
            <mxPoint x="1895" y="325" as="sourcePoint" />
            <mxPoint x="1925" y="295" as="targetPoint" />
          </mxGeometry>
        </mxCell>
        <mxCell id="E2_kgH21EwWMTmpc-RUo-35" value="company_name" style="text;html=1;strokeColor=none;fillColor=none;align=center;verticalAlign=middle;whiteSpace=wrap;rounded=0;fontSize=16;" vertex="1" parent="1">
          <mxGeometry x="1812.5" y="302.5" width="60" height="30" as="geometry" />
        </mxCell>
        <mxCell id="E2_kgH21EwWMTmpc-RUo-36" value="" style="endArrow=none;html=1;rounded=0;fontSize=12;startSize=8;endSize=8;curved=1;exitX=0.75;exitY=0;exitDx=0;exitDy=0;" edge="1" parent="1" source="E2_kgH21EwWMTmpc-RUo-29" target="E2_kgH21EwWMTmpc-RUo-31">
          <mxGeometry width="50" height="50" relative="1" as="geometry">
            <mxPoint x="1990" y="255" as="sourcePoint" />
            <mxPoint x="2040" y="205" as="targetPoint" />
          </mxGeometry>
        </mxCell>
        <mxCell id="E2_kgH21EwWMTmpc-RUo-38" value="client_since" style="text;html=1;align=center;verticalAlign=middle;whiteSpace=wrap;rounded=0;fontSize=16;" vertex="1" parent="1">
          <mxGeometry x="2002.5" y="307.5" width="60" height="30" as="geometry" />
        </mxCell>
        <mxCell id="E2_kgH21EwWMTmpc-RUo-39" value="" style="endArrow=none;html=1;rounded=0;fontSize=12;startSize=8;endSize=8;curved=1;exitX=1;exitY=1;exitDx=0;exitDy=0;entryX=0.5;entryY=0;entryDx=0;entryDy=0;" edge="1" parent="1" source="E2_kgH21EwWMTmpc-RUo-29" target="E2_kgH21EwWMTmpc-RUo-38">
          <mxGeometry width="50" height="50" relative="1" as="geometry">
            <mxPoint x="2162.5" y="327.5" as="sourcePoint" />
            <mxPoint x="2212.5" y="277.5" as="targetPoint" />
          </mxGeometry>
        </mxCell>
        <mxCell id="E2_kgH21EwWMTmpc-RUo-40" value="" style="endArrow=none;html=1;rounded=0;exitX=1;exitY=0.5;exitDx=0;exitDy=0;" edge="1" parent="1" source="E2_kgH21EwWMTmpc-RUo-29">
          <mxGeometry width="50" height="50" relative="1" as="geometry">
            <mxPoint x="2060" y="280" as="sourcePoint" />
            <mxPoint x="2130" y="280" as="targetPoint" />
          </mxGeometry>
        </mxCell>
        <mxCell id="E2_kgH21EwWMTmpc-RUo-41" value="" style="endArrow=none;html=1;rounded=0;" edge="1" parent="1">
          <mxGeometry width="50" height="50" relative="1" as="geometry">
            <mxPoint x="2130" y="280" as="sourcePoint" />
            <mxPoint x="2240" y="280" as="targetPoint" />
          </mxGeometry>
        </mxCell>
        <mxCell id="E2_kgH21EwWMTmpc-RUo-44" value="employees" style="rounded=0;whiteSpace=wrap;html=1;fontSize=16;" vertex="1" parent="1">
          <mxGeometry x="2240" y="257.5" width="100" height="40" as="geometry" />
        </mxCell>
        <mxCell id="E2_kgH21EwWMTmpc-RUo-45" value="employee_id" style="text;html=1;strokeColor=none;fillColor=none;align=center;verticalAlign=middle;whiteSpace=wrap;rounded=0;fontSize=16;" vertex="1" parent="1">
          <mxGeometry x="2160" y="200" width="60" height="30" as="geometry" />
        </mxCell>
        <mxCell id="E2_kgH21EwWMTmpc-RUo-46" value="" style="shape=waypoint;sketch=0;fillStyle=solid;size=6;pointerEvents=1;points=[];fillColor=none;resizable=0;rotatable=0;perimeter=centerPerimeter;snapToPoint=1;fontSize=16;" vertex="1" parent="1">
          <mxGeometry x="2180" y="220" width="20" height="20" as="geometry" />
        </mxCell>
        <mxCell id="E2_kgH21EwWMTmpc-RUo-47" value="" style="endArrow=none;html=1;rounded=0;fontSize=12;startSize=8;endSize=8;curved=1;entryX=0.172;entryY=1.041;entryDx=0;entryDy=0;exitX=0.403;exitY=0;exitDx=0;exitDy=0;exitPerimeter=0;entryPerimeter=0;" edge="1" parent="1" source="E2_kgH21EwWMTmpc-RUo-48" target="E2_kgH21EwWMTmpc-RUo-44">
          <mxGeometry width="50" height="50" relative="1" as="geometry">
            <mxPoint x="2330" y="342.5" as="sourcePoint" />
            <mxPoint x="2340" y="322.5" as="targetPoint" />
          </mxGeometry>
        </mxCell>
        <mxCell id="E2_kgH21EwWMTmpc-RUo-48" value="hiring_date" style="text;html=1;strokeColor=none;fillColor=none;align=center;verticalAlign=middle;whiteSpace=wrap;rounded=0;fontSize=16;" vertex="1" parent="1">
          <mxGeometry x="2180" y="317.5" width="60" height="30" as="geometry" />
        </mxCell>
        <mxCell id="E2_kgH21EwWMTmpc-RUo-49" value="" style="endArrow=none;html=1;rounded=0;fontSize=12;startSize=8;endSize=8;curved=1;exitX=0.5;exitY=0;exitDx=0;exitDy=0;entryX=0.485;entryY=1.094;entryDx=0;entryDy=0;entryPerimeter=0;" edge="1" parent="1" source="E2_kgH21EwWMTmpc-RUo-44" target="E2_kgH21EwWMTmpc-RUo-50">
          <mxGeometry width="50" height="50" relative="1" as="geometry">
            <mxPoint x="2350" y="292.5" as="sourcePoint" />
            <mxPoint x="2380" y="262.5" as="targetPoint" />
          </mxGeometry>
        </mxCell>
        <mxCell id="E2_kgH21EwWMTmpc-RUo-50" value="monthly_salary" style="text;html=1;strokeColor=none;fillColor=none;align=center;verticalAlign=middle;whiteSpace=wrap;rounded=0;fontSize=16;" vertex="1" parent="1">
          <mxGeometry x="2275" y="180" width="60" height="30" as="geometry" />
        </mxCell>
        <mxCell id="E2_kgH21EwWMTmpc-RUo-51" value="" style="endArrow=none;html=1;rounded=0;fontSize=12;startSize=8;endSize=8;curved=1;exitX=1;exitY=0.25;exitDx=0;exitDy=0;entryX=0;entryY=0.5;entryDx=0;entryDy=0;" edge="1" parent="1" source="E2_kgH21EwWMTmpc-RUo-44" target="E2_kgH21EwWMTmpc-RUo-52">
          <mxGeometry width="50" height="50" relative="1" as="geometry">
            <mxPoint x="2360" y="322.5" as="sourcePoint" />
            <mxPoint x="2410" y="312.5" as="targetPoint" />
          </mxGeometry>
        </mxCell>
        <mxCell id="E2_kgH21EwWMTmpc-RUo-52" value="tax_code(codice fiscale)" style="text;html=1;strokeColor=none;fillColor=none;align=center;verticalAlign=middle;whiteSpace=wrap;rounded=0;fontSize=16;" vertex="1" parent="1">
          <mxGeometry x="2390" y="230" width="60" height="30" as="geometry" />
        </mxCell>
        <mxCell id="E2_kgH21EwWMTmpc-RUo-53" value="" style="endArrow=none;html=1;rounded=0;fontSize=12;startSize=8;endSize=8;curved=1;entryX=0;entryY=0.25;entryDx=0;entryDy=0;exitX=0.524;exitY=0.762;exitDx=0;exitDy=0;exitPerimeter=0;" edge="1" parent="1" source="E2_kgH21EwWMTmpc-RUo-46" target="E2_kgH21EwWMTmpc-RUo-44">
          <mxGeometry width="50" height="50" relative="1" as="geometry">
            <mxPoint x="2175" y="272.5" as="sourcePoint" />
            <mxPoint x="2225" y="222.5" as="targetPoint" />
          </mxGeometry>
        </mxCell>
        <mxCell id="E2_kgH21EwWMTmpc-RUo-54" style="edgeStyle=none;curved=1;rounded=0;orthogonalLoop=1;jettySize=auto;html=1;exitX=0.5;exitY=1;exitDx=0;exitDy=0;fontSize=12;startSize=8;endSize=8;" edge="1" parent="1" source="E2_kgH21EwWMTmpc-RUo-50" target="E2_kgH21EwWMTmpc-RUo-50">
          <mxGeometry relative="1" as="geometry" />
        </mxCell>
        <mxCell id="E2_kgH21EwWMTmpc-RUo-55" value="" style="endArrow=none;html=1;rounded=0;fontSize=12;startSize=8;endSize=8;curved=1;exitX=0.75;exitY=1;exitDx=0;exitDy=0;entryX=0.5;entryY=0;entryDx=0;entryDy=0;" edge="1" parent="1" source="E2_kgH21EwWMTmpc-RUo-44" target="E2_kgH21EwWMTmpc-RUo-56">
          <mxGeometry width="50" height="50" relative="1" as="geometry">
            <mxPoint x="2365" y="392.5" as="sourcePoint" />
            <mxPoint x="2365" y="332.5" as="targetPoint" />
          </mxGeometry>
        </mxCell>
        <mxCell id="E2_kgH21EwWMTmpc-RUo-56" value="position(stage,full time,part time)" style="text;html=1;strokeColor=none;fillColor=none;align=center;verticalAlign=middle;whiteSpace=wrap;rounded=0;fontSize=16;" vertex="1" parent="1">
          <mxGeometry x="2360" y="317.5" width="60" height="30" as="geometry" />
        </mxCell>
        <mxCell id="E2_kgH21EwWMTmpc-RUo-58" value="must" style="rhombus;whiteSpace=wrap;html=1;" vertex="1" parent="1">
          <mxGeometry x="1740.5" y="242.25" width="80" height="80" as="geometry" />
        </mxCell>
        <mxCell id="E2_kgH21EwWMTmpc-RUo-59" value="" style="endArrow=none;html=1;rounded=0;fontSize=12;startSize=8;endSize=8;curved=1;exitX=1;exitY=0.5;exitDx=0;exitDy=0;" edge="1" parent="1" source="E2_kgH21EwWMTmpc-RUo-58">
          <mxGeometry width="50" height="50" relative="1" as="geometry">
            <mxPoint x="1842.5" y="282.25" as="sourcePoint" />
            <mxPoint x="1922.5" y="282.25" as="targetPoint" />
          </mxGeometry>
        </mxCell>
        <mxCell id="E2_kgH21EwWMTmpc-RUo-60" value="" style="endArrow=none;html=1;rounded=0;fontSize=12;startSize=8;endSize=8;curved=1;entryX=0;entryY=0.5;entryDx=0;entryDy=0;exitX=1;exitY=0.5;exitDx=0;exitDy=0;" edge="1" parent="1" source="E2_kgH21EwWMTmpc-RUo-61" target="E2_kgH21EwWMTmpc-RUo-58">
          <mxGeometry width="50" height="50" relative="1" as="geometry">
            <mxPoint x="1642.5" y="282.25" as="sourcePoint" />
            <mxPoint x="1682.5" y="262.25" as="targetPoint" />
          </mxGeometry>
        </mxCell>
        <mxCell id="E2_kgH21EwWMTmpc-RUo-61" value="payments" style="rounded=0;whiteSpace=wrap;html=1;" vertex="1" parent="1">
          <mxGeometry x="1502.5" y="252.25" width="120" height="60" as="geometry" />
        </mxCell>
        <mxCell id="E2_kgH21EwWMTmpc-RUo-62" value="payment_id" style="text;html=1;align=center;verticalAlign=middle;whiteSpace=wrap;rounded=0;fontSize=16;" vertex="1" parent="1">
          <mxGeometry x="1392.5" y="197.25" width="60" height="30" as="geometry" />
        </mxCell>
        <mxCell id="E2_kgH21EwWMTmpc-RUo-63" value="" style="endArrow=none;html=1;rounded=0;fontSize=12;startSize=8;endSize=8;curved=1;entryX=0;entryY=0;entryDx=0;entryDy=0;" edge="1" parent="1" source="E2_kgH21EwWMTmpc-RUo-65" target="E2_kgH21EwWMTmpc-RUo-61">
          <mxGeometry width="50" height="50" relative="1" as="geometry">
            <mxPoint x="1452.5" y="232.25" as="sourcePoint" />
            <mxPoint x="1482.5" y="262.25" as="targetPoint" />
          </mxGeometry>
        </mxCell>
        <mxCell id="E2_kgH21EwWMTmpc-RUo-64" value="" style="endArrow=none;html=1;rounded=0;fontSize=12;startSize=8;endSize=8;curved=1;entryDx=0;entryDy=0;" edge="1" parent="1" target="E2_kgH21EwWMTmpc-RUo-65">
          <mxGeometry width="50" height="50" relative="1" as="geometry">
            <mxPoint x="1452.5" y="232.25" as="sourcePoint" />
            <mxPoint x="1502.5" y="252.25" as="targetPoint" />
          </mxGeometry>
        </mxCell>
        <mxCell id="E2_kgH21EwWMTmpc-RUo-65" value="" style="shape=waypoint;sketch=0;fillStyle=solid;size=6;pointerEvents=1;points=[];fillColor=none;resizable=0;rotatable=0;perimeter=centerPerimeter;snapToPoint=1;" vertex="1" parent="1">
          <mxGeometry x="1445" y="222.25" width="20" height="20" as="geometry" />
        </mxCell>
        <mxCell id="E2_kgH21EwWMTmpc-RUo-66" value="amount" style="text;html=1;align=center;verticalAlign=middle;whiteSpace=wrap;rounded=0;fontSize=16;" vertex="1" parent="1">
          <mxGeometry x="1642.5" y="192.25" width="60" height="30" as="geometry" />
        </mxCell>
        <mxCell id="E2_kgH21EwWMTmpc-RUo-67" value="payment_descripition" style="text;html=1;align=center;verticalAlign=middle;whiteSpace=wrap;rounded=0;fontSize=16;" vertex="1" parent="1">
          <mxGeometry x="1437.5" y="340.25" width="60" height="30" as="geometry" />
        </mxCell>
        <mxCell id="E2_kgH21EwWMTmpc-RUo-68" value="" style="endArrow=none;html=1;rounded=0;fontSize=12;startSize=8;endSize=8;curved=1;entryX=0;entryY=1;entryDx=0;entryDy=0;exitX=0.5;exitY=0;exitDx=0;exitDy=0;" edge="1" parent="1" source="E2_kgH21EwWMTmpc-RUo-67" target="E2_kgH21EwWMTmpc-RUo-61">
          <mxGeometry width="50" height="50" relative="1" as="geometry">
            <mxPoint x="1422.5" y="352.25" as="sourcePoint" />
            <mxPoint x="1472.5" y="302.25" as="targetPoint" />
          </mxGeometry>
        </mxCell>
        <mxCell id="E2_kgH21EwWMTmpc-RUo-69" value="" style="endArrow=none;html=1;rounded=0;fontSize=12;startSize=8;endSize=8;curved=1;entryX=0.5;entryY=1;entryDx=0;entryDy=0;exitX=1;exitY=0;exitDx=0;exitDy=0;" edge="1" parent="1" source="E2_kgH21EwWMTmpc-RUo-61" target="E2_kgH21EwWMTmpc-RUo-66">
          <mxGeometry width="50" height="50" relative="1" as="geometry">
            <mxPoint x="1572.5" y="262.25" as="sourcePoint" />
            <mxPoint x="1672.5" y="242.25" as="targetPoint" />
          </mxGeometry>
        </mxCell>
        <mxCell id="E2_kgH21EwWMTmpc-RUo-70" value="own" style="rhombus;whiteSpace=wrap;html=1;fontSize=16;" vertex="1" parent="1">
          <mxGeometry x="1935" y="430" width="80" height="80" as="geometry" />
        </mxCell>
        <mxCell id="E2_kgH21EwWMTmpc-RUo-71" value="" style="endArrow=none;html=1;rounded=0;fontSize=12;startSize=8;endSize=8;curved=1;entryX=0;entryY=0.5;entryDx=0;entryDy=0;exitX=1;exitY=0.5;exitDx=0;exitDy=0;" edge="1" parent="1" target="E2_kgH21EwWMTmpc-RUo-75" source="E2_kgH21EwWMTmpc-RUo-72">
          <mxGeometry width="50" height="50" relative="1" as="geometry">
            <mxPoint x="1770" y="750" as="sourcePoint" />
            <mxPoint x="1910" y="750" as="targetPoint" />
          </mxGeometry>
        </mxCell>
        <mxCell id="E2_kgH21EwWMTmpc-RUo-72" value="have" style="rhombus;whiteSpace=wrap;html=1;fontSize=16;" vertex="1" parent="1">
          <mxGeometry x="1727.5" y="714.26" width="80" height="80" as="geometry" />
        </mxCell>
        <mxCell id="E2_kgH21EwWMTmpc-RUo-73" value="" style="endArrow=none;html=1;rounded=0;fontSize=12;startSize=8;endSize=8;curved=1;exitX=0.5;exitY=0;exitDx=0;exitDy=0;entryX=0.5;entryY=1;entryDx=0;entryDy=0;" edge="1" parent="1" source="E2_kgH21EwWMTmpc-RUo-72" target="E2_kgH21EwWMTmpc-RUo-83">
          <mxGeometry width="50" height="50" relative="1" as="geometry">
            <mxPoint x="1740" y="650" as="sourcePoint" />
            <mxPoint x="1770" y="600" as="targetPoint" />
          </mxGeometry>
        </mxCell>
        <mxCell id="E2_kgH21EwWMTmpc-RUo-74" value="" style="endArrow=none;html=1;rounded=0;fontSize=12;startSize=8;endSize=8;curved=1;entryX=0.5;entryY=0;entryDx=0;entryDy=0;" edge="1" parent="1" source="E2_kgH21EwWMTmpc-RUo-70" target="E2_kgH21EwWMTmpc-RUo-75">
          <mxGeometry width="50" height="50" relative="1" as="geometry">
            <mxPoint x="1970" y="550" as="sourcePoint" />
            <mxPoint x="1970" y="720" as="targetPoint" />
          </mxGeometry>
        </mxCell>
        <mxCell id="E2_kgH21EwWMTmpc-RUo-75" value="vehichles" style="rounded=0;whiteSpace=wrap;html=1;fontSize=16;" vertex="1" parent="1">
          <mxGeometry x="1915" y="724.26" width="120" height="60" as="geometry" />
        </mxCell>
        <mxCell id="E2_kgH21EwWMTmpc-RUo-76" value="vehicle_id" style="text;html=1;strokeColor=none;fillColor=none;align=center;verticalAlign=middle;whiteSpace=wrap;rounded=0;fontSize=16;" vertex="1" parent="1">
          <mxGeometry x="1895" y="670" width="60" height="30" as="geometry" />
        </mxCell>
        <mxCell id="E2_kgH21EwWMTmpc-RUo-77" value="arrival_date" style="text;strokeColor=none;fillColor=none;align=left;verticalAlign=middle;spacingLeft=4;spacingRight=4;overflow=hidden;points=[[0,0.5],[1,0.5]];portConstraint=eastwest;rotatable=0;whiteSpace=wrap;html=1;fontSize=16;" vertex="1" parent="1">
          <mxGeometry x="1978" y="670" width="90" height="30" as="geometry" />
        </mxCell>
        <mxCell id="E2_kgH21EwWMTmpc-RUo-78" value="" style="endArrow=none;html=1;rounded=0;fontSize=12;startSize=8;endSize=8;curved=1;entryX=0.25;entryY=0;entryDx=0;entryDy=0;exitX=0.5;exitY=1;exitDx=0;exitDy=0;" edge="1" parent="1" source="E2_kgH21EwWMTmpc-RUo-76" target="E2_kgH21EwWMTmpc-RUo-75">
          <mxGeometry width="50" height="50" relative="1" as="geometry">
            <mxPoint x="1855" y="740" as="sourcePoint" />
            <mxPoint x="1925" y="710" as="targetPoint" />
          </mxGeometry>
        </mxCell>
        <mxCell id="E2_kgH21EwWMTmpc-RUo-79" value="" style="endArrow=none;html=1;rounded=0;fontSize=12;startSize=8;endSize=8;curved=1;entryX=0.531;entryY=0.99;entryDx=0;entryDy=0;entryPerimeter=0;exitX=0.75;exitY=0;exitDx=0;exitDy=0;" edge="1" parent="1" source="E2_kgH21EwWMTmpc-RUo-75" target="E2_kgH21EwWMTmpc-RUo-77">
          <mxGeometry width="50" height="50" relative="1" as="geometry">
            <mxPoint x="1970" y="730" as="sourcePoint" />
            <mxPoint x="2020" y="680" as="targetPoint" />
          </mxGeometry>
        </mxCell>
        <mxCell id="E2_kgH21EwWMTmpc-RUo-80" value="" style="shape=waypoint;sketch=0;fillStyle=solid;size=6;pointerEvents=1;points=[];fillColor=none;resizable=0;rotatable=0;perimeter=centerPerimeter;snapToPoint=1;fontSize=16;" vertex="1" parent="1">
          <mxGeometry x="1915" y="690" width="20" height="20" as="geometry" />
        </mxCell>
        <mxCell id="E2_kgH21EwWMTmpc-RUo-81" value="" style="endArrow=none;html=1;rounded=0;fontSize=12;startSize=8;endSize=8;curved=1;entryX=0.124;entryY=1.009;entryDx=0;entryDy=0;entryPerimeter=0;exitX=0.75;exitY=0;exitDx=0;exitDy=0;" edge="1" parent="1" source="E2_kgH21EwWMTmpc-RUo-82" target="E2_kgH21EwWMTmpc-RUo-75">
          <mxGeometry width="50" height="50" relative="1" as="geometry">
            <mxPoint x="1885" y="810" as="sourcePoint" />
            <mxPoint x="1945" y="800" as="targetPoint" />
          </mxGeometry>
        </mxCell>
        <mxCell id="E2_kgH21EwWMTmpc-RUo-82" value="status" style="text;html=1;strokeColor=none;fillColor=none;align=center;verticalAlign=middle;whiteSpace=wrap;rounded=0;fontSize=16;" vertex="1" parent="1">
          <mxGeometry x="1860" y="800" width="60" height="30" as="geometry" />
        </mxCell>
        <mxCell id="E2_kgH21EwWMTmpc-RUo-83" value="vehicle_data" style="rounded=0;whiteSpace=wrap;html=1;fontSize=16;" vertex="1" parent="1">
          <mxGeometry x="1727.5" y="570" width="85" height="30" as="geometry" />
        </mxCell>
        <mxCell id="E2_kgH21EwWMTmpc-RUo-84" value="" style="endArrow=none;html=1;rounded=0;fontSize=12;startSize=8;endSize=8;curved=1;exitX=0.25;exitY=0;exitDx=0;exitDy=0;" edge="1" parent="1" source="E2_kgH21EwWMTmpc-RUo-83" target="E2_kgH21EwWMTmpc-RUo-85">
          <mxGeometry width="50" height="50" relative="1" as="geometry">
            <mxPoint x="1730" y="545" as="sourcePoint" />
            <mxPoint x="1720" y="515" as="targetPoint" />
          </mxGeometry>
        </mxCell>
        <mxCell id="E2_kgH21EwWMTmpc-RUo-85" value="model" style="text;html=1;strokeColor=none;fillColor=none;align=center;verticalAlign=middle;whiteSpace=wrap;rounded=0;fontSize=16;" vertex="1" parent="1">
          <mxGeometry x="1690" y="507.5" width="60" height="30" as="geometry" />
        </mxCell>
        <mxCell id="E2_kgH21EwWMTmpc-RUo-86" value="" style="endArrow=none;html=1;rounded=0;fontSize=12;startSize=8;endSize=8;curved=1;exitX=0.75;exitY=1;exitDx=0;exitDy=0;" edge="1" parent="1" source="E2_kgH21EwWMTmpc-RUo-83" target="E2_kgH21EwWMTmpc-RUo-87">
          <mxGeometry width="50" height="50" relative="1" as="geometry">
            <mxPoint x="1790" y="565" as="sourcePoint" />
            <mxPoint x="1810" y="515" as="targetPoint" />
          </mxGeometry>
        </mxCell>
        <mxCell id="E2_kgH21EwWMTmpc-RUo-87" value="brand" style="text;html=1;strokeColor=none;fillColor=none;align=center;verticalAlign=middle;whiteSpace=wrap;rounded=0;fontSize=16;" vertex="1" parent="1">
          <mxGeometry x="1802.5" y="610" width="60" height="30" as="geometry" />
        </mxCell>
        <mxCell id="E2_kgH21EwWMTmpc-RUo-88" value="" style="endArrow=none;html=1;rounded=0;fontSize=12;startSize=8;endSize=8;curved=1;exitX=0.25;exitY=1;exitDx=0;exitDy=0;" edge="1" parent="1" source="E2_kgH21EwWMTmpc-RUo-83" target="E2_kgH21EwWMTmpc-RUo-89">
          <mxGeometry width="50" height="50" relative="1" as="geometry">
            <mxPoint x="1720" y="635" as="sourcePoint" />
            <mxPoint x="1750" y="595" as="targetPoint" />
          </mxGeometry>
        </mxCell>
        <mxCell id="E2_kgH21EwWMTmpc-RUo-89" value="tag" style="text;html=1;strokeColor=none;fillColor=none;align=center;verticalAlign=middle;whiteSpace=wrap;rounded=0;fontSize=16;" vertex="1" parent="1">
          <mxGeometry x="1680" y="610" width="60" height="30" as="geometry" />
        </mxCell>
        <mxCell id="E2_kgH21EwWMTmpc-RUo-90" value="" style="endArrow=none;html=1;rounded=0;fontSize=12;startSize=8;endSize=8;curved=1;exitX=0.75;exitY=0;exitDx=0;exitDy=0;" edge="1" parent="1" source="E2_kgH21EwWMTmpc-RUo-83" target="E2_kgH21EwWMTmpc-RUo-91">
          <mxGeometry width="50" height="50" relative="1" as="geometry">
            <mxPoint x="1815" y="585" as="sourcePoint" />
            <mxPoint x="1850" y="555" as="targetPoint" />
          </mxGeometry>
        </mxCell>
        <mxCell id="E2_kgH21EwWMTmpc-RUo-91" value="reg_date&lt;br&gt;(immatricola&lt;br&gt;zione)" style="text;html=1;strokeColor=none;fillColor=none;align=center;verticalAlign=middle;whiteSpace=wrap;rounded=0;fontSize=16;" vertex="1" parent="1">
          <mxGeometry x="1812.5" y="510" width="50" height="25" as="geometry" />
        </mxCell>
        <mxCell id="E2_kgH21EwWMTmpc-RUo-93" value="(1,N)" style="text;html=1;strokeColor=none;fillColor=none;align=center;verticalAlign=middle;whiteSpace=wrap;rounded=0;fontSize=16;" vertex="1" parent="1">
          <mxGeometry x="1670" y="565" width="60" height="30" as="geometry" />
        </mxCell>
        <mxCell id="E2_kgH21EwWMTmpc-RUo-94" value="" style="endArrow=none;html=1;rounded=0;exitX=0.5;exitY=0;exitDx=0;exitDy=0;entryX=0.5;entryY=1;entryDx=0;entryDy=0;" edge="1" parent="1" source="E2_kgH21EwWMTmpc-RUo-70" target="E2_kgH21EwWMTmpc-RUo-29">
          <mxGeometry width="50" height="50" relative="1" as="geometry">
            <mxPoint x="1800" y="450" as="sourcePoint" />
            <mxPoint x="1970" y="310" as="targetPoint" />
          </mxGeometry>
        </mxCell>
        <mxCell id="E2_kgH21EwWMTmpc-RUo-95" value="have" style="rhombus;whiteSpace=wrap;html=1;fontSize=16;" vertex="1" parent="1">
          <mxGeometry x="2250" y="430" width="80" height="80" as="geometry" />
        </mxCell>
        <mxCell id="E2_kgH21EwWMTmpc-RUo-96" style="edgeStyle=none;curved=1;rounded=0;orthogonalLoop=1;jettySize=auto;html=1;exitX=1;exitY=1;exitDx=0;exitDy=0;fontSize=12;startSize=8;endSize=8;" edge="1" parent="1" source="E2_kgH21EwWMTmpc-RUo-95" target="E2_kgH21EwWMTmpc-RUo-95">
          <mxGeometry relative="1" as="geometry" />
        </mxCell>
        <mxCell id="E2_kgH21EwWMTmpc-RUo-97" value="" style="endArrow=none;html=1;rounded=0;fontSize=12;startSize=8;endSize=8;curved=1;exitX=0.5;exitY=0;exitDx=0;exitDy=0;entryX=0.5;entryY=1;entryDx=0;entryDy=0;" edge="1" parent="1" source="E2_kgH21EwWMTmpc-RUo-98" target="E2_kgH21EwWMTmpc-RUo-95">
          <mxGeometry width="50" height="50" relative="1" as="geometry">
            <mxPoint x="2280" y="720" as="sourcePoint" />
            <mxPoint x="2280.0699999999997" y="510" as="targetPoint" />
          </mxGeometry>
        </mxCell>
        <mxCell id="E2_kgH21EwWMTmpc-RUo-98" value="jobs" style="rounded=0;whiteSpace=wrap;html=1;fontSize=16;" vertex="1" parent="1">
          <mxGeometry x="2225" y="729.26" width="130" height="50" as="geometry" />
        </mxCell>
        <mxCell id="E2_kgH21EwWMTmpc-RUo-100" value="id_mech" style="text;html=1;strokeColor=none;fillColor=none;align=center;verticalAlign=middle;whiteSpace=wrap;rounded=0;fontSize=16;" vertex="1" parent="1">
          <mxGeometry x="2180" y="820" width="60" height="30" as="geometry" />
        </mxCell>
        <mxCell id="E2_kgH21EwWMTmpc-RUo-101" value="" style="endArrow=none;html=1;rounded=0;fontSize=12;startSize=8;endSize=8;curved=1;exitX=0.75;exitY=0;exitDx=0;exitDy=0;" edge="1" parent="1" source="E2_kgH21EwWMTmpc-RUo-98" target="E2_kgH21EwWMTmpc-RUo-104">
          <mxGeometry width="50" height="50" relative="1" as="geometry">
            <mxPoint x="2350" y="744.26" as="sourcePoint" />
            <mxPoint x="2345" y="694.26" as="targetPoint" />
          </mxGeometry>
        </mxCell>
        <mxCell id="E2_kgH21EwWMTmpc-RUo-102" style="edgeStyle=none;curved=1;rounded=0;orthogonalLoop=1;jettySize=auto;html=1;entryX=-0.002;entryY=1.176;entryDx=0;entryDy=0;entryPerimeter=0;fontSize=12;startSize=8;endSize=8;" edge="1" parent="1">
          <mxGeometry relative="1" as="geometry">
            <mxPoint x="2370" y="839.26" as="sourcePoint" />
            <mxPoint x="2370" y="839.26" as="targetPoint" />
          </mxGeometry>
        </mxCell>
        <mxCell id="E2_kgH21EwWMTmpc-RUo-103" value="id_vehicle" style="text;html=1;strokeColor=none;fillColor=none;align=center;verticalAlign=middle;whiteSpace=wrap;rounded=0;fontSize=16;" vertex="1" parent="1">
          <mxGeometry x="2330" y="664.26" width="60" height="30" as="geometry" />
        </mxCell>
        <mxCell id="E2_kgH21EwWMTmpc-RUo-104" value="" style="shape=waypoint;sketch=0;fillStyle=solid;size=6;pointerEvents=1;points=[];fillColor=none;resizable=0;rotatable=0;perimeter=centerPerimeter;snapToPoint=1;fontSize=16;" vertex="1" parent="1">
          <mxGeometry x="2335" y="684.26" width="20" height="20" as="geometry" />
        </mxCell>
        <mxCell id="E2_kgH21EwWMTmpc-RUo-105" value="" style="endArrow=none;html=1;rounded=0;fontSize=12;startSize=8;endSize=8;curved=1;exitX=1;exitY=0.75;exitDx=0;exitDy=0;" edge="1" parent="1" source="E2_kgH21EwWMTmpc-RUo-98" target="E2_kgH21EwWMTmpc-RUo-106">
          <mxGeometry width="50" height="50" relative="1" as="geometry">
            <mxPoint x="2400" y="814.26" as="sourcePoint" />
            <mxPoint x="2385" y="784.26" as="targetPoint" />
          </mxGeometry>
        </mxCell>
        <mxCell id="E2_kgH21EwWMTmpc-RUo-106" value="" style="shape=waypoint;sketch=0;fillStyle=solid;size=6;pointerEvents=1;points=[];fillColor=none;resizable=0;rotatable=0;perimeter=centerPerimeter;snapToPoint=1;fontSize=16;" vertex="1" parent="1">
          <mxGeometry x="2375" y="774.26" width="20" height="20" as="geometry" />
        </mxCell>
        <mxCell id="E2_kgH21EwWMTmpc-RUo-107" value="job_id" style="text;html=1;strokeColor=none;fillColor=none;align=center;verticalAlign=middle;whiteSpace=wrap;rounded=0;fontSize=16;" vertex="1" parent="1">
          <mxGeometry x="2360" y="779.26" width="60" height="30" as="geometry" />
        </mxCell>
        <mxCell id="E2_kgH21EwWMTmpc-RUo-108" value="" style="endArrow=none;html=1;rounded=0;fontSize=12;startSize=8;endSize=8;curved=1;exitX=0.25;exitY=1;exitDx=0;exitDy=0;" edge="1" parent="1" source="E2_kgH21EwWMTmpc-RUo-98" target="E2_kgH21EwWMTmpc-RUo-109">
          <mxGeometry width="50" height="50" relative="1" as="geometry">
            <mxPoint x="2253" y="774" as="sourcePoint" />
            <mxPoint x="2200" y="790" as="targetPoint" />
          </mxGeometry>
        </mxCell>
        <mxCell id="E2_kgH21EwWMTmpc-RUo-109" value="" style="shape=waypoint;sketch=0;fillStyle=solid;size=6;pointerEvents=1;points=[];fillColor=none;resizable=0;rotatable=0;perimeter=centerPerimeter;snapToPoint=1;fontSize=16;" vertex="1" parent="1">
          <mxGeometry x="2200" y="809.26" width="20" height="20" as="geometry" />
        </mxCell>
        <mxCell id="E2_kgH21EwWMTmpc-RUo-112" value="" style="endArrow=none;html=1;rounded=0;entryX=0.5;entryY=1;entryDx=0;entryDy=0;exitX=0.5;exitY=0;exitDx=0;exitDy=0;" edge="1" parent="1" source="E2_kgH21EwWMTmpc-RUo-95" target="E2_kgH21EwWMTmpc-RUo-44">
          <mxGeometry width="50" height="50" relative="1" as="geometry">
            <mxPoint x="2170" y="410" as="sourcePoint" />
            <mxPoint x="2220" y="360" as="targetPoint" />
          </mxGeometry>
        </mxCell>
        <mxCell id="E2_kgH21EwWMTmpc-RUo-113" value="" style="rhombus;whiteSpace=wrap;html=1;" vertex="1" parent="1">
          <mxGeometry x="2087.5" y="714.26" width="80" height="80" as="geometry" />
        </mxCell>
        <mxCell id="E2_kgH21EwWMTmpc-RUo-114" value="" style="endArrow=none;html=1;rounded=0;exitX=1;exitY=0.5;exitDx=0;exitDy=0;entryX=0;entryY=0.5;entryDx=0;entryDy=0;" edge="1" parent="1" source="E2_kgH21EwWMTmpc-RUo-75" target="E2_kgH21EwWMTmpc-RUo-113">
          <mxGeometry width="50" height="50" relative="1" as="geometry">
            <mxPoint x="2030" y="830" as="sourcePoint" />
            <mxPoint x="2080" y="780" as="targetPoint" />
          </mxGeometry>
        </mxCell>
        <mxCell id="E2_kgH21EwWMTmpc-RUo-115" value="" style="endArrow=none;html=1;rounded=0;exitX=1;exitY=0.5;exitDx=0;exitDy=0;entryX=0;entryY=0.5;entryDx=0;entryDy=0;" edge="1" parent="1" source="E2_kgH21EwWMTmpc-RUo-113" target="E2_kgH21EwWMTmpc-RUo-98">
          <mxGeometry width="50" height="50" relative="1" as="geometry">
            <mxPoint x="2200" y="780" as="sourcePoint" />
            <mxPoint x="2250" y="730" as="targetPoint" />
          </mxGeometry>
        </mxCell>
        <mxCell id="E2_kgH21EwWMTmpc-RUo-116" value="" style="endArrow=none;html=1;rounded=0;fontSize=12;startSize=8;endSize=8;curved=1;entryX=0.5;entryY=1;entryDx=0;entryDy=0;" edge="1" parent="1" target="E2_kgH21EwWMTmpc-RUo-178">
          <mxGeometry width="50" height="50" relative="1" as="geometry">
            <mxPoint x="3617.5" y="180" as="sourcePoint" />
            <mxPoint x="3617.5" y="110" as="targetPoint" />
          </mxGeometry>
        </mxCell>
        <mxCell id="E2_kgH21EwWMTmpc-RUo-117" value="" style="rhombus;whiteSpace=wrap;html=1;fontSize=16;" vertex="1" parent="1">
          <mxGeometry x="3577.5" y="160" width="80" height="80" as="geometry" />
        </mxCell>
        <mxCell id="E2_kgH21EwWMTmpc-RUo-118" value="" style="endArrow=none;html=1;rounded=0;fontSize=12;startSize=8;endSize=8;curved=1;exitX=1;exitY=0.5;exitDx=0;exitDy=0;" edge="1" parent="1" source="E2_kgH21EwWMTmpc-RUo-117">
          <mxGeometry width="50" height="50" relative="1" as="geometry">
            <mxPoint x="3692.5" y="230" as="sourcePoint" />
            <mxPoint x="3872.5" y="200" as="targetPoint" />
          </mxGeometry>
        </mxCell>
        <mxCell id="E2_kgH21EwWMTmpc-RUo-119" value="" style="endArrow=none;html=1;rounded=0;fontSize=12;startSize=8;endSize=8;curved=1;entryX=0;entryY=0.5;entryDx=0;entryDy=0;" edge="1" parent="1" target="E2_kgH21EwWMTmpc-RUo-117">
          <mxGeometry width="50" height="50" relative="1" as="geometry">
            <mxPoint x="3352.5" y="200" as="sourcePoint" />
            <mxPoint x="3502.5" y="190" as="targetPoint" />
          </mxGeometry>
        </mxCell>
        <mxCell id="E2_kgH21EwWMTmpc-RUo-120" value="" style="endArrow=none;html=1;rounded=0;fontSize=12;startSize=8;endSize=8;curved=1;exitX=0.5;exitY=0.083;exitDx=0;exitDy=0;exitPerimeter=0;" edge="1" parent="1" source="E2_kgH21EwWMTmpc-RUo-121">
          <mxGeometry width="50" height="50" relative="1" as="geometry">
            <mxPoint x="3352.5" y="280" as="sourcePoint" />
            <mxPoint x="3352.5" y="200" as="targetPoint" />
          </mxGeometry>
        </mxCell>
        <mxCell id="E2_kgH21EwWMTmpc-RUo-121" value="body_parts" style="rounded=0;whiteSpace=wrap;html=1;fontSize=16;" vertex="1" parent="1">
          <mxGeometry x="3292.5" y="285" width="120" height="60" as="geometry" />
        </mxCell>
        <mxCell id="E2_kgH21EwWMTmpc-RUo-122" value="" style="endArrow=none;html=1;rounded=0;fontSize=12;startSize=8;endSize=8;curved=1;exitX=0.75;exitY=0;exitDx=0;exitDy=0;" edge="1" parent="1" source="E2_kgH21EwWMTmpc-RUo-121" target="E2_kgH21EwWMTmpc-RUo-123">
          <mxGeometry width="50" height="50" relative="1" as="geometry">
            <mxPoint x="3377.5" y="265" as="sourcePoint" />
            <mxPoint x="3407.5" y="245" as="targetPoint" />
          </mxGeometry>
        </mxCell>
        <mxCell id="E2_kgH21EwWMTmpc-RUo-123" value="bd_description" style="text;html=1;strokeColor=none;fillColor=none;align=center;verticalAlign=middle;whiteSpace=wrap;rounded=0;fontSize=16;" vertex="1" parent="1">
          <mxGeometry x="3377.5" y="229.99999999999977" width="60" height="30" as="geometry" />
        </mxCell>
        <mxCell id="E2_kgH21EwWMTmpc-RUo-124" value="" style="endArrow=none;html=1;rounded=0;fontSize=12;startSize=8;endSize=8;curved=1;entryX=0.222;entryY=-0.008;entryDx=0;entryDy=0;entryPerimeter=0;exitDx=0;exitDy=0;" edge="1" parent="1" source="E2_kgH21EwWMTmpc-RUo-128" target="E2_kgH21EwWMTmpc-RUo-121">
          <mxGeometry width="50" height="50" relative="1" as="geometry">
            <mxPoint x="3297.5" y="265" as="sourcePoint" />
            <mxPoint x="3262.5" y="210" as="targetPoint" />
          </mxGeometry>
        </mxCell>
        <mxCell id="E2_kgH21EwWMTmpc-RUo-125" value="bd_id" style="text;html=1;strokeColor=none;fillColor=none;align=center;verticalAlign=middle;whiteSpace=wrap;rounded=0;fontSize=16;" vertex="1" parent="1">
          <mxGeometry x="3252.5" y="230" width="60" height="30" as="geometry" />
        </mxCell>
        <mxCell id="E2_kgH21EwWMTmpc-RUo-126" value="" style="endArrow=none;html=1;rounded=0;fontSize=12;startSize=8;endSize=8;curved=1;entryX=0;entryY=0.5;entryDx=0;entryDy=0;" edge="1" parent="1" target="E2_kgH21EwWMTmpc-RUo-121">
          <mxGeometry width="50" height="50" relative="1" as="geometry">
            <mxPoint x="3232.5" y="310" as="sourcePoint" />
            <mxPoint x="3502.5" y="345" as="targetPoint" />
          </mxGeometry>
        </mxCell>
        <mxCell id="E2_kgH21EwWMTmpc-RUo-127" value="bid_provider&amp;nbsp;" style="text;html=1;strokeColor=none;fillColor=none;align=center;verticalAlign=middle;whiteSpace=wrap;rounded=0;fontSize=16;" vertex="1" parent="1">
          <mxGeometry x="3160" y="285" width="60" height="30" as="geometry" />
        </mxCell>
        <mxCell id="E2_kgH21EwWMTmpc-RUo-128" value="" style="shape=waypoint;sketch=0;fillStyle=solid;size=6;pointerEvents=1;points=[];fillColor=none;resizable=0;rotatable=0;perimeter=centerPerimeter;snapToPoint=1;fontSize=16;" vertex="1" parent="1">
          <mxGeometry x="3287.5" y="255" width="20" height="20" as="geometry" />
        </mxCell>
        <mxCell id="E2_kgH21EwWMTmpc-RUo-129" value="" style="endArrow=none;html=1;rounded=0;fontSize=12;startSize=8;endSize=8;curved=1;" edge="1" parent="1">
          <mxGeometry width="50" height="50" relative="1" as="geometry">
            <mxPoint x="3872.5" y="290" as="sourcePoint" />
            <mxPoint x="3872.5" y="200" as="targetPoint" />
          </mxGeometry>
        </mxCell>
        <mxCell id="E2_kgH21EwWMTmpc-RUo-130" value="mechanical_parts" style="rounded=0;whiteSpace=wrap;html=1;fontSize=16;" vertex="1" parent="1">
          <mxGeometry x="3797.5" y="285" width="140" height="60" as="geometry" />
        </mxCell>
        <mxCell id="E2_kgH21EwWMTmpc-RUo-131" value="" style="endArrow=none;html=1;rounded=0;fontSize=12;startSize=8;endSize=8;curved=1;entryX=0.75;entryY=0;entryDx=0;entryDy=0;" edge="1" parent="1" source="E2_kgH21EwWMTmpc-RUo-135" target="E2_kgH21EwWMTmpc-RUo-130">
          <mxGeometry width="50" height="50" relative="1" as="geometry">
            <mxPoint x="3972.5" y="260" as="sourcePoint" />
            <mxPoint x="4052.5" y="390" as="targetPoint" />
          </mxGeometry>
        </mxCell>
        <mxCell id="E2_kgH21EwWMTmpc-RUo-132" value="mp_id" style="text;html=1;strokeColor=none;fillColor=none;align=center;verticalAlign=middle;whiteSpace=wrap;rounded=0;fontSize=16;" vertex="1" parent="1">
          <mxGeometry x="3942.5" y="230" width="60" height="30" as="geometry" />
        </mxCell>
        <mxCell id="E2_kgH21EwWMTmpc-RUo-133" value="mp_description" style="text;html=1;strokeColor=none;fillColor=none;align=center;verticalAlign=middle;whiteSpace=wrap;rounded=0;fontSize=16;" vertex="1" parent="1">
          <mxGeometry x="3772.5" y="230" width="60" height="30" as="geometry" />
        </mxCell>
        <mxCell id="E2_kgH21EwWMTmpc-RUo-134" value="" style="endArrow=none;html=1;rounded=0;fontSize=12;startSize=8;endSize=8;curved=1;entryDx=0;entryDy=0;" edge="1" parent="1" target="E2_kgH21EwWMTmpc-RUo-135">
          <mxGeometry width="50" height="50" relative="1" as="geometry">
            <mxPoint x="3972.5" y="260" as="sourcePoint" />
            <mxPoint x="3902.5" y="285" as="targetPoint" />
          </mxGeometry>
        </mxCell>
        <mxCell id="E2_kgH21EwWMTmpc-RUo-135" value="" style="shape=waypoint;sketch=0;fillStyle=solid;size=6;pointerEvents=1;points=[];fillColor=none;resizable=0;rotatable=0;perimeter=centerPerimeter;snapToPoint=1;fontSize=16;" vertex="1" parent="1">
          <mxGeometry x="3962.5" y="250" width="20" height="20" as="geometry" />
        </mxCell>
        <mxCell id="E2_kgH21EwWMTmpc-RUo-136" value="" style="endArrow=none;html=1;rounded=0;fontSize=12;startSize=8;endSize=8;curved=1;entryX=0.25;entryY=0;entryDx=0;entryDy=0;exitX=0.5;exitY=1;exitDx=0;exitDy=0;" edge="1" parent="1" source="E2_kgH21EwWMTmpc-RUo-133" target="E2_kgH21EwWMTmpc-RUo-130">
          <mxGeometry width="50" height="50" relative="1" as="geometry">
            <mxPoint x="3802.5" y="260" as="sourcePoint" />
            <mxPoint x="3802.5" y="240" as="targetPoint" />
          </mxGeometry>
        </mxCell>
        <mxCell id="E2_kgH21EwWMTmpc-RUo-137" value="" style="endArrow=none;html=1;rounded=0;fontSize=12;startSize=8;endSize=8;curved=1;entryX=0.537;entryY=0.978;entryDx=0;entryDy=0;entryPerimeter=0;" edge="1" parent="1" target="E2_kgH21EwWMTmpc-RUo-130">
          <mxGeometry width="50" height="50" relative="1" as="geometry">
            <mxPoint x="3872.5" y="400" as="sourcePoint" />
            <mxPoint x="3872.5" y="350" as="targetPoint" />
          </mxGeometry>
        </mxCell>
        <mxCell id="E2_kgH21EwWMTmpc-RUo-138" value="" style="rhombus;whiteSpace=wrap;html=1;fontSize=16;" vertex="1" parent="1">
          <mxGeometry x="3832.5" y="400" width="80" height="80" as="geometry" />
        </mxCell>
        <mxCell id="E2_kgH21EwWMTmpc-RUo-139" value="" style="endArrow=none;html=1;rounded=0;fontSize=12;startSize=8;endSize=8;curved=1;entryX=0.5;entryY=1;entryDx=0;entryDy=0;exitX=0.5;exitY=0;exitDx=0;exitDy=0;" edge="1" parent="1" source="E2_kgH21EwWMTmpc-RUo-140" target="E2_kgH21EwWMTmpc-RUo-138">
          <mxGeometry width="50" height="50" relative="1" as="geometry">
            <mxPoint x="3877.08" y="580" as="sourcePoint" />
            <mxPoint x="3877.08" y="520" as="targetPoint" />
          </mxGeometry>
        </mxCell>
        <mxCell id="E2_kgH21EwWMTmpc-RUo-140" value="intern_part_detail" style="rounded=0;whiteSpace=wrap;html=1;fontSize=16;" vertex="1" parent="1">
          <mxGeometry x="3807.5" y="570" width="130" height="60" as="geometry" />
        </mxCell>
        <mxCell id="E2_kgH21EwWMTmpc-RUo-141" value="" style="endArrow=none;html=1;rounded=0;fontSize=12;startSize=8;endSize=8;curved=1;entryX=0.25;entryY=0;entryDx=0;entryDy=0;exitX=0.5;exitY=1;exitDx=0;exitDy=0;" edge="1" parent="1" source="E2_kgH21EwWMTmpc-RUo-142" target="E2_kgH21EwWMTmpc-RUo-140">
          <mxGeometry width="50" height="50" relative="1" as="geometry">
            <mxPoint x="3802.5" y="540" as="sourcePoint" />
            <mxPoint x="3767.5" y="510" as="targetPoint" />
          </mxGeometry>
        </mxCell>
        <mxCell id="E2_kgH21EwWMTmpc-RUo-142" value="lenght" style="text;html=1;strokeColor=none;fillColor=none;align=center;verticalAlign=middle;whiteSpace=wrap;rounded=0;fontSize=16;" vertex="1" parent="1">
          <mxGeometry x="3772.5" y="510" width="60" height="30" as="geometry" />
        </mxCell>
        <mxCell id="E2_kgH21EwWMTmpc-RUo-143" value="" style="endArrow=none;html=1;rounded=0;fontSize=12;startSize=8;endSize=8;curved=1;" edge="1" parent="1" target="E2_kgH21EwWMTmpc-RUo-148">
          <mxGeometry width="50" height="50" relative="1" as="geometry">
            <mxPoint x="3922.5" y="570" as="sourcePoint" />
            <mxPoint x="3948.214285714286" y="550" as="targetPoint" />
          </mxGeometry>
        </mxCell>
        <mxCell id="E2_kgH21EwWMTmpc-RUo-144" value="" style="endArrow=none;html=1;rounded=0;fontSize=12;startSize=8;endSize=8;curved=1;exitX=0;exitY=0.5;exitDx=0;exitDy=0;" edge="1" parent="1" source="E2_kgH21EwWMTmpc-RUo-140" target="E2_kgH21EwWMTmpc-RUo-145">
          <mxGeometry width="50" height="50" relative="1" as="geometry">
            <mxPoint x="3772.5" y="610" as="sourcePoint" />
            <mxPoint x="3817.5" y="600" as="targetPoint" />
          </mxGeometry>
        </mxCell>
        <mxCell id="E2_kgH21EwWMTmpc-RUo-145" value="height" style="text;html=1;strokeColor=none;fillColor=none;align=center;verticalAlign=middle;whiteSpace=wrap;rounded=0;fontSize=16;" vertex="1" parent="1">
          <mxGeometry x="3717.5" y="565" width="60" height="30" as="geometry" />
        </mxCell>
        <mxCell id="E2_kgH21EwWMTmpc-RUo-146" value="" style="endArrow=none;html=1;rounded=0;fontSize=12;startSize=8;endSize=8;curved=1;exitX=1;exitY=0.5;exitDx=0;exitDy=0;" edge="1" parent="1" source="E2_kgH21EwWMTmpc-RUo-140" target="E2_kgH21EwWMTmpc-RUo-147">
          <mxGeometry width="50" height="50" relative="1" as="geometry">
            <mxPoint x="3952.5" y="600" as="sourcePoint" />
            <mxPoint x="3982.5" y="620" as="targetPoint" />
          </mxGeometry>
        </mxCell>
        <mxCell id="E2_kgH21EwWMTmpc-RUo-147" value="weight" style="text;html=1;strokeColor=none;fillColor=none;align=center;verticalAlign=middle;whiteSpace=wrap;rounded=0;fontSize=16;" vertex="1" parent="1">
          <mxGeometry x="3962.5" y="620" width="60" height="30" as="geometry" />
        </mxCell>
        <mxCell id="E2_kgH21EwWMTmpc-RUo-148" value="necessary_tools" style="text;html=1;strokeColor=none;fillColor=none;align=center;verticalAlign=middle;whiteSpace=wrap;rounded=0;fontSize=16;" vertex="1" parent="1">
          <mxGeometry x="3892.5" y="520" width="130" height="30" as="geometry" />
        </mxCell>
        <mxCell id="E2_kgH21EwWMTmpc-RUo-149" value="" style="endArrow=none;html=1;rounded=0;fontSize=12;startSize=8;endSize=8;curved=1;entryX=0.5;entryY=1;entryDx=0;entryDy=0;" edge="1" parent="1" target="E2_kgH21EwWMTmpc-RUo-121">
          <mxGeometry width="50" height="50" relative="1" as="geometry">
            <mxPoint x="3352.5" y="400" as="sourcePoint" />
            <mxPoint x="3352.5" y="350" as="targetPoint" />
          </mxGeometry>
        </mxCell>
        <mxCell id="E2_kgH21EwWMTmpc-RUo-150" value="" style="rhombus;whiteSpace=wrap;html=1;fontSize=16;" vertex="1" parent="1">
          <mxGeometry x="3312.5" y="400" width="80" height="80" as="geometry" />
        </mxCell>
        <mxCell id="E2_kgH21EwWMTmpc-RUo-151" value="" style="endArrow=none;html=1;rounded=0;fontSize=12;startSize=8;endSize=8;curved=1;entryX=0.5;entryY=1;entryDx=0;entryDy=0;" edge="1" parent="1" source="E2_kgH21EwWMTmpc-RUo-161" target="E2_kgH21EwWMTmpc-RUo-150">
          <mxGeometry width="50" height="50" relative="1" as="geometry">
            <mxPoint x="3355" y="580" as="sourcePoint" />
            <mxPoint x="3355" y="510" as="targetPoint" />
          </mxGeometry>
        </mxCell>
        <mxCell id="E2_kgH21EwWMTmpc-RUo-152" value="" style="endArrow=none;html=1;rounded=0;fontSize=12;startSize=8;endSize=8;curved=1;exitX=1;exitY=0.25;exitDx=0;exitDy=0;entryX=0.5;entryY=1;entryDx=0;entryDy=0;" edge="1" parent="1" source="E2_kgH21EwWMTmpc-RUo-161" target="E2_kgH21EwWMTmpc-RUo-153">
          <mxGeometry width="50" height="50" relative="1" as="geometry">
            <mxPoint x="3380" y="570" as="sourcePoint" />
            <mxPoint x="3410" y="540" as="targetPoint" />
          </mxGeometry>
        </mxCell>
        <mxCell id="E2_kgH21EwWMTmpc-RUo-153" value="height" style="text;html=1;strokeColor=none;fillColor=none;align=center;verticalAlign=middle;whiteSpace=wrap;rounded=0;fontSize=16;" vertex="1" parent="1">
          <mxGeometry x="3410" y="510" width="60" height="30" as="geometry" />
        </mxCell>
        <mxCell id="E2_kgH21EwWMTmpc-RUo-154" value="" style="endArrow=none;html=1;rounded=0;fontSize=12;startSize=8;endSize=8;curved=1;entryX=0;entryY=0.25;entryDx=0;entryDy=0;exitX=0.5;exitY=1;exitDx=0;exitDy=0;" edge="1" parent="1" source="E2_kgH21EwWMTmpc-RUo-155" target="E2_kgH21EwWMTmpc-RUo-161">
          <mxGeometry width="50" height="50" relative="1" as="geometry">
            <mxPoint x="3250" y="560" as="sourcePoint" />
            <mxPoint x="3280" y="560" as="targetPoint" />
          </mxGeometry>
        </mxCell>
        <mxCell id="E2_kgH21EwWMTmpc-RUo-155" value="lenght" style="text;html=1;strokeColor=none;fillColor=none;align=center;verticalAlign=middle;whiteSpace=wrap;rounded=0;fontSize=16;" vertex="1" parent="1">
          <mxGeometry x="3220" y="510" width="60" height="30" as="geometry" />
        </mxCell>
        <mxCell id="E2_kgH21EwWMTmpc-RUo-156" value="" style="endArrow=none;html=1;rounded=0;fontSize=12;startSize=8;endSize=8;curved=1;exitX=1;exitY=0.75;exitDx=0;exitDy=0;" edge="1" parent="1" source="E2_kgH21EwWMTmpc-RUo-161" target="E2_kgH21EwWMTmpc-RUo-157">
          <mxGeometry width="50" height="50" relative="1" as="geometry">
            <mxPoint x="3417.5" y="620" as="sourcePoint" />
            <mxPoint x="3440" y="640" as="targetPoint" />
          </mxGeometry>
        </mxCell>
        <mxCell id="E2_kgH21EwWMTmpc-RUo-157" value="thickness" style="text;html=1;strokeColor=none;fillColor=none;align=center;verticalAlign=middle;whiteSpace=wrap;rounded=0;fontSize=16;" vertex="1" parent="1">
          <mxGeometry x="3452.5" y="550" width="60" height="30" as="geometry" />
        </mxCell>
        <mxCell id="E2_kgH21EwWMTmpc-RUo-158" value="" style="endArrow=none;html=1;rounded=0;fontSize=12;startSize=8;endSize=8;curved=1;entryX=0;entryY=0.75;entryDx=0;entryDy=0;exitX=0.5;exitY=0;exitDx=0;exitDy=0;" edge="1" parent="1" source="E2_kgH21EwWMTmpc-RUo-159" target="E2_kgH21EwWMTmpc-RUo-161">
          <mxGeometry width="50" height="50" relative="1" as="geometry">
            <mxPoint x="3240" y="640" as="sourcePoint" />
            <mxPoint x="3247.5" y="630" as="targetPoint" />
          </mxGeometry>
        </mxCell>
        <mxCell id="E2_kgH21EwWMTmpc-RUo-159" value="model" style="text;html=1;strokeColor=none;fillColor=none;align=center;verticalAlign=middle;whiteSpace=wrap;rounded=0;fontSize=16;" vertex="1" parent="1">
          <mxGeometry x="3220" y="600" width="60" height="30" as="geometry" />
        </mxCell>
        <mxCell id="E2_kgH21EwWMTmpc-RUo-160" value="" style="endArrow=none;html=1;rounded=0;fontSize=12;startSize=8;endSize=8;curved=1;entryX=0.5;entryY=1;entryDx=0;entryDy=0;" edge="1" parent="1" target="E2_kgH21EwWMTmpc-RUo-161">
          <mxGeometry width="50" height="50" relative="1" as="geometry">
            <mxPoint x="3355" y="580" as="sourcePoint" />
            <mxPoint x="3355" y="510" as="targetPoint" />
          </mxGeometry>
        </mxCell>
        <mxCell id="E2_kgH21EwWMTmpc-RUo-161" value="parts_detail" style="rounded=0;whiteSpace=wrap;html=1;fontSize=16;" vertex="1" parent="1">
          <mxGeometry x="3292.5" y="550" width="120" height="60" as="geometry" />
        </mxCell>
        <mxCell id="E2_kgH21EwWMTmpc-RUo-162" value="" style="endArrow=none;html=1;rounded=0;fontSize=12;startSize=8;endSize=8;curved=1;entryX=0.5;entryY=1;entryDx=0;entryDy=0;" edge="1" parent="1" target="E2_kgH21EwWMTmpc-RUo-161">
          <mxGeometry width="50" height="50" relative="1" as="geometry">
            <mxPoint x="3352.5" y="760" as="sourcePoint" />
            <mxPoint x="3342.5" y="710" as="targetPoint" />
          </mxGeometry>
        </mxCell>
        <mxCell id="E2_kgH21EwWMTmpc-RUo-163" value="" style="endArrow=none;html=1;rounded=0;fontSize=12;startSize=8;endSize=8;curved=1;" edge="1" parent="1">
          <mxGeometry width="50" height="50" relative="1" as="geometry">
            <mxPoint x="3872.5" y="760" as="sourcePoint" />
            <mxPoint x="3872.5" y="630" as="targetPoint" />
          </mxGeometry>
        </mxCell>
        <mxCell id="E2_kgH21EwWMTmpc-RUo-164" value="" style="rhombus;whiteSpace=wrap;html=1;fontSize=16;" vertex="1" parent="1">
          <mxGeometry x="3312.5" y="760" width="80" height="80" as="geometry" />
        </mxCell>
        <mxCell id="E2_kgH21EwWMTmpc-RUo-165" value="" style="rhombus;whiteSpace=wrap;html=1;fontSize=16;" vertex="1" parent="1">
          <mxGeometry x="3832.5" y="760" width="80" height="80" as="geometry" />
        </mxCell>
        <mxCell id="E2_kgH21EwWMTmpc-RUo-166" value="storage" style="rounded=0;whiteSpace=wrap;html=1;fontSize=16;" vertex="1" parent="1">
          <mxGeometry x="3542.5" y="780" width="125" height="40" as="geometry" />
        </mxCell>
        <mxCell id="E2_kgH21EwWMTmpc-RUo-167" value="" style="endArrow=none;html=1;rounded=0;fontSize=12;startSize=8;endSize=8;curved=1;exitX=0.25;exitY=0;exitDx=0;exitDy=0;" edge="1" parent="1" source="E2_kgH21EwWMTmpc-RUo-166" target="E2_kgH21EwWMTmpc-RUo-169">
          <mxGeometry width="50" height="50" relative="1" as="geometry">
            <mxPoint x="3547.5" y="770" as="sourcePoint" />
            <mxPoint x="3547.5" y="740" as="targetPoint" />
          </mxGeometry>
        </mxCell>
        <mxCell id="E2_kgH21EwWMTmpc-RUo-168" value="part_id" style="text;html=1;strokeColor=none;fillColor=none;align=center;verticalAlign=middle;whiteSpace=wrap;rounded=0;fontSize=16;" vertex="1" parent="1">
          <mxGeometry x="3460" y="725" width="60" height="30" as="geometry" />
        </mxCell>
        <mxCell id="E2_kgH21EwWMTmpc-RUo-169" value="" style="shape=waypoint;sketch=0;fillStyle=solid;size=6;pointerEvents=1;points=[];fillColor=none;resizable=0;rotatable=0;perimeter=centerPerimeter;snapToPoint=1;fontSize=16;" vertex="1" parent="1">
          <mxGeometry x="3487.5" y="750" width="20" height="20" as="geometry" />
        </mxCell>
        <mxCell id="E2_kgH21EwWMTmpc-RUo-170" value="" style="endArrow=none;html=1;rounded=0;fontSize=12;startSize=8;endSize=8;curved=1;exitX=0.5;exitY=0;exitDx=0;exitDy=0;" edge="1" parent="1" source="E2_kgH21EwWMTmpc-RUo-171">
          <mxGeometry width="50" height="50" relative="1" as="geometry">
            <mxPoint x="3527.5" y="850" as="sourcePoint" />
            <mxPoint x="3557.5" y="820" as="targetPoint" />
          </mxGeometry>
        </mxCell>
        <mxCell id="E2_kgH21EwWMTmpc-RUo-171" value="ship_time" style="text;html=1;strokeColor=none;fillColor=none;align=center;verticalAlign=middle;whiteSpace=wrap;rounded=0;fontSize=16;" vertex="1" parent="1">
          <mxGeometry x="3472.5" y="845" width="60" height="30" as="geometry" />
        </mxCell>
        <mxCell id="E2_kgH21EwWMTmpc-RUo-172" value="" style="endArrow=none;html=1;rounded=0;fontSize=12;startSize=8;endSize=8;curved=1;exitX=0.75;exitY=0;exitDx=0;exitDy=0;entryX=0.5;entryY=1;entryDx=0;entryDy=0;" edge="1" parent="1" source="E2_kgH21EwWMTmpc-RUo-166" target="E2_kgH21EwWMTmpc-RUo-173">
          <mxGeometry width="50" height="50" relative="1" as="geometry">
            <mxPoint x="3617.5" y="765" as="sourcePoint" />
            <mxPoint x="3637.5" y="740" as="targetPoint" />
          </mxGeometry>
        </mxCell>
        <mxCell id="E2_kgH21EwWMTmpc-RUo-173" value="price" style="text;html=1;strokeColor=none;fillColor=none;align=center;verticalAlign=middle;whiteSpace=wrap;rounded=0;fontSize=16;" vertex="1" parent="1">
          <mxGeometry x="3652.5" y="725" width="60" height="30" as="geometry" />
        </mxCell>
        <mxCell id="E2_kgH21EwWMTmpc-RUo-174" value="" style="endArrow=none;html=1;rounded=0;fontSize=12;startSize=8;endSize=8;curved=1;exitX=0.75;exitY=1;exitDx=0;exitDy=0;entryX=0.5;entryY=0;entryDx=0;entryDy=0;" edge="1" parent="1" source="E2_kgH21EwWMTmpc-RUo-166" target="E2_kgH21EwWMTmpc-RUo-175">
          <mxGeometry width="50" height="50" relative="1" as="geometry">
            <mxPoint x="3632.5" y="890" as="sourcePoint" />
            <mxPoint x="3647.5" y="850" as="targetPoint" />
          </mxGeometry>
        </mxCell>
        <mxCell id="E2_kgH21EwWMTmpc-RUo-175" value="availability" style="text;html=1;strokeColor=none;fillColor=none;align=center;verticalAlign=middle;whiteSpace=wrap;rounded=0;fontSize=16;" vertex="1" parent="1">
          <mxGeometry x="3627.5" y="850" width="60" height="30" as="geometry" />
        </mxCell>
        <mxCell id="E2_kgH21EwWMTmpc-RUo-176" value="" style="endArrow=none;html=1;rounded=0;fontSize=12;startSize=8;endSize=8;curved=1;exitX=1;exitY=0.5;exitDx=0;exitDy=0;entryX=0;entryY=0.5;entryDx=0;entryDy=0;" edge="1" parent="1" source="E2_kgH21EwWMTmpc-RUo-164" target="E2_kgH21EwWMTmpc-RUo-166">
          <mxGeometry width="50" height="50" relative="1" as="geometry">
            <mxPoint x="3412.5" y="820" as="sourcePoint" />
            <mxPoint x="3462.5" y="770" as="targetPoint" />
          </mxGeometry>
        </mxCell>
        <mxCell id="E2_kgH21EwWMTmpc-RUo-177" value="" style="endArrow=none;html=1;rounded=0;fontSize=12;startSize=8;endSize=8;curved=1;exitX=1;exitY=0.5;exitDx=0;exitDy=0;entryX=0;entryY=0.5;entryDx=0;entryDy=0;" edge="1" parent="1" source="E2_kgH21EwWMTmpc-RUo-166" target="E2_kgH21EwWMTmpc-RUo-165">
          <mxGeometry width="50" height="50" relative="1" as="geometry">
            <mxPoint x="3702.5" y="810" as="sourcePoint" />
            <mxPoint x="3752.5" y="760" as="targetPoint" />
          </mxGeometry>
        </mxCell>
        <mxCell id="E2_kgH21EwWMTmpc-RUo-178" value="providers" style="rounded=0;whiteSpace=wrap;html=1;fontSize=16;" vertex="1" parent="1">
          <mxGeometry x="3567.5" y="60" width="100" height="40" as="geometry" />
        </mxCell>
        <mxCell id="E2_kgH21EwWMTmpc-RUo-179" style="edgeStyle=none;curved=1;rounded=0;orthogonalLoop=1;jettySize=auto;html=1;entryX=0;entryY=0.5;entryDx=0;entryDy=0;fontSize=12;startSize=8;endSize=8;" edge="1" parent="1" source="E2_kgH21EwWMTmpc-RUo-178" target="E2_kgH21EwWMTmpc-RUo-178">
          <mxGeometry relative="1" as="geometry" />
        </mxCell>
        <mxCell id="E2_kgH21EwWMTmpc-RUo-180" value="" style="endArrow=none;html=1;rounded=0;fontSize=12;startSize=8;endSize=8;curved=1;entryX=0;entryY=0;entryDx=0;entryDy=0;exitX=0.688;exitY=0.788;exitDx=0;exitDy=0;exitPerimeter=0;" edge="1" parent="1" source="E2_kgH21EwWMTmpc-RUo-181" target="E2_kgH21EwWMTmpc-RUo-178">
          <mxGeometry width="50" height="50" relative="1" as="geometry">
            <mxPoint x="3557.5" y="55" as="sourcePoint" />
            <mxPoint x="3537.5" y="45" as="targetPoint" />
          </mxGeometry>
        </mxCell>
        <mxCell id="E2_kgH21EwWMTmpc-RUo-181" value="" style="shape=waypoint;sketch=0;fillStyle=solid;size=6;pointerEvents=1;points=[];fillColor=none;resizable=0;rotatable=0;perimeter=centerPerimeter;snapToPoint=1;fontSize=16;" vertex="1" parent="1">
          <mxGeometry x="3522.5" y="20" width="20" height="20" as="geometry" />
        </mxCell>
        <mxCell id="E2_kgH21EwWMTmpc-RUo-182" value="id_provider" style="text;html=1;strokeColor=none;fillColor=none;align=center;verticalAlign=middle;whiteSpace=wrap;rounded=0;fontSize=16;" vertex="1" parent="1">
          <mxGeometry x="3502.5" width="60" height="30" as="geometry" />
        </mxCell>
        <mxCell id="E2_kgH21EwWMTmpc-RUo-183" value="" style="endArrow=none;html=1;rounded=0;fontSize=12;startSize=8;endSize=8;curved=1;exitX=0.75;exitY=0;exitDx=0;exitDy=0;" edge="1" parent="1" source="E2_kgH21EwWMTmpc-RUo-178" target="E2_kgH21EwWMTmpc-RUo-184">
          <mxGeometry width="50" height="50" relative="1" as="geometry">
            <mxPoint x="3632.5" y="85" as="sourcePoint" />
            <mxPoint x="3682.5" y="35" as="targetPoint" />
          </mxGeometry>
        </mxCell>
        <mxCell id="E2_kgH21EwWMTmpc-RUo-184" value="city" style="text;html=1;strokeColor=none;fillColor=none;align=center;verticalAlign=middle;whiteSpace=wrap;rounded=0;fontSize=16;" vertex="1" parent="1">
          <mxGeometry x="3637.5" width="60" height="30" as="geometry" />
        </mxCell>
        <mxCell id="E2_kgH21EwWMTmpc-RUo-185" value="" style="endArrow=none;html=1;rounded=0;fontSize=12;startSize=8;endSize=8;curved=1;entryX=0;entryY=0.5;entryDx=0;entryDy=0;exitX=1;exitY=0.5;exitDx=0;exitDy=0;" edge="1" parent="1" source="E2_kgH21EwWMTmpc-RUo-186" target="E2_kgH21EwWMTmpc-RUo-178">
          <mxGeometry width="50" height="50" relative="1" as="geometry">
            <mxPoint x="3517.5" y="125" as="sourcePoint" />
            <mxPoint x="3537.5" y="85" as="targetPoint" />
          </mxGeometry>
        </mxCell>
        <mxCell id="E2_kgH21EwWMTmpc-RUo-186" value="address" style="text;html=1;strokeColor=none;fillColor=none;align=center;verticalAlign=middle;whiteSpace=wrap;rounded=0;fontSize=16;" vertex="1" parent="1">
          <mxGeometry x="3470" y="90" width="60" height="30" as="geometry" />
        </mxCell>
        <mxCell id="E2_kgH21EwWMTmpc-RUo-187" value="" style="endArrow=none;html=1;rounded=0;fontSize=12;startSize=8;endSize=8;curved=1;entryX=1;entryY=0.75;entryDx=0;entryDy=0;exitX=0;exitY=0;exitDx=0;exitDy=0;" edge="1" parent="1" source="E2_kgH21EwWMTmpc-RUo-188" target="E2_kgH21EwWMTmpc-RUo-178">
          <mxGeometry width="50" height="50" relative="1" as="geometry">
            <mxPoint x="3677.5" y="135" as="sourcePoint" />
            <mxPoint x="3717.5" y="115" as="targetPoint" />
          </mxGeometry>
        </mxCell>
        <mxCell id="E2_kgH21EwWMTmpc-RUo-188" value="name" style="text;html=1;strokeColor=none;fillColor=none;align=center;verticalAlign=middle;whiteSpace=wrap;rounded=0;fontSize=16;" vertex="1" parent="1">
          <mxGeometry x="3682.5" y="100" width="60" height="30" as="geometry" />
        </mxCell>
        <mxCell id="E2_kgH21EwWMTmpc-RUo-189" value="builds_on" style="text;html=1;align=center;verticalAlign=middle;resizable=0;points=[];autosize=1;strokeColor=none;fillColor=none;fontSize=16;" vertex="1" parent="1">
          <mxGeometry x="3932.5" y="370" width="90" height="30" as="geometry" />
        </mxCell>
        <mxCell id="E2_kgH21EwWMTmpc-RUo-190" value="year_from" style="text;html=1;align=center;verticalAlign=middle;resizable=0;points=[];autosize=1;strokeColor=none;fillColor=none;fontSize=16;" vertex="1" parent="1">
          <mxGeometry x="3677.5" y="270" width="100" height="30" as="geometry" />
        </mxCell>
        <mxCell id="E2_kgH21EwWMTmpc-RUo-191" value="year_to" style="text;html=1;align=center;verticalAlign=middle;resizable=0;points=[];autosize=1;strokeColor=none;fillColor=none;fontSize=16;" vertex="1" parent="1">
          <mxGeometry x="3717.5" y="368" width="80" height="30" as="geometry" />
        </mxCell>
        <mxCell id="E2_kgH21EwWMTmpc-RUo-192" value="mid_provider&amp;nbsp;" style="text;html=1;align=center;verticalAlign=middle;resizable=0;points=[];autosize=1;strokeColor=none;fillColor=none;fontSize=16;" vertex="1" parent="1">
          <mxGeometry x="4050" y="290" width="120" height="30" as="geometry" />
        </mxCell>
        <mxCell id="E2_kgH21EwWMTmpc-RUo-193" value="color" style="text;html=1;align=center;verticalAlign=middle;resizable=0;points=[];autosize=1;strokeColor=none;fillColor=none;fontSize=16;" vertex="1" parent="1">
          <mxGeometry x="3212.5" y="358" width="60" height="30" as="geometry" />
        </mxCell>
        <mxCell id="E2_kgH21EwWMTmpc-RUo-194" value="year" style="text;html=1;align=center;verticalAlign=middle;resizable=0;points=[];autosize=1;strokeColor=none;fillColor=none;fontSize=16;" vertex="1" parent="1">
          <mxGeometry x="3452.5" y="290" width="50" height="30" as="geometry" />
        </mxCell>
        <mxCell id="E2_kgH21EwWMTmpc-RUo-195" value="vehicle_model" style="text;html=1;align=center;verticalAlign=middle;resizable=0;points=[];autosize=1;strokeColor=none;fillColor=none;fontSize=16;" vertex="1" parent="1">
          <mxGeometry x="3382.5" y="370" width="130" height="30" as="geometry" />
        </mxCell>
        <mxCell id="E2_kgH21EwWMTmpc-RUo-196" value="part_id(key)" style="text;html=1;align=center;verticalAlign=middle;resizable=0;points=[];autosize=1;strokeColor=none;fillColor=none;fontSize=16;" vertex="1" parent="1">
          <mxGeometry x="3387.5" y="630" width="110" height="30" as="geometry" />
        </mxCell>
        <mxCell id="E2_kgH21EwWMTmpc-RUo-197" value="int_part_id (key)" style="text;html=1;align=center;verticalAlign=middle;resizable=0;points=[];autosize=1;strokeColor=none;fillColor=none;fontSize=16;" vertex="1" parent="1">
          <mxGeometry x="3697.5" y="650" width="140" height="30" as="geometry" />
        </mxCell>
        <mxCell id="E2_kgH21EwWMTmpc-RUo-198" value="" style="endArrow=none;html=1;rounded=0;fontSize=12;startSize=8;endSize=8;curved=1;exitX=0.75;exitY=1;exitDx=0;exitDy=0;entryX=0.424;entryY=-0.09;entryDx=0;entryDy=0;entryPerimeter=0;" edge="1" parent="1" source="E2_kgH21EwWMTmpc-RUo-130" target="E2_kgH21EwWMTmpc-RUo-189">
          <mxGeometry width="50" height="50" relative="1" as="geometry">
            <mxPoint x="3962.5" y="340" as="sourcePoint" />
            <mxPoint x="4012.5" y="290" as="targetPoint" />
          </mxGeometry>
        </mxCell>
        <mxCell id="E2_kgH21EwWMTmpc-RUo-199" value="" style="endArrow=none;html=1;rounded=0;fontSize=12;startSize=8;endSize=8;curved=1;entryX=1;entryY=0.5;entryDx=0;entryDy=0;" edge="1" parent="1" source="E2_kgH21EwWMTmpc-RUo-201" target="E2_kgH21EwWMTmpc-RUo-130">
          <mxGeometry width="50" height="50" relative="1" as="geometry">
            <mxPoint x="4052.5" y="310" as="sourcePoint" />
            <mxPoint x="3832.5" y="350" as="targetPoint" />
          </mxGeometry>
        </mxCell>
        <mxCell id="E2_kgH21EwWMTmpc-RUo-200" value="" style="endArrow=none;html=1;rounded=0;fontSize=12;startSize=8;endSize=8;curved=1;exitX=0.531;exitY=1.076;exitDx=0;exitDy=0;exitPerimeter=0;entryX=0;entryY=0.5;entryDx=0;entryDy=0;" edge="1" parent="1" source="E2_kgH21EwWMTmpc-RUo-190" target="E2_kgH21EwWMTmpc-RUo-130">
          <mxGeometry width="50" height="50" relative="1" as="geometry">
            <mxPoint x="3742.5" y="360" as="sourcePoint" />
            <mxPoint x="3792.5" y="310" as="targetPoint" />
          </mxGeometry>
        </mxCell>
        <mxCell id="E2_kgH21EwWMTmpc-RUo-201" value="" style="shape=waypoint;sketch=0;fillStyle=solid;size=6;pointerEvents=1;points=[];fillColor=none;resizable=0;rotatable=0;perimeter=centerPerimeter;snapToPoint=1;fontSize=16;" vertex="1" parent="1">
          <mxGeometry x="4042.5" y="300" width="20" height="20" as="geometry" />
        </mxCell>
        <mxCell id="E2_kgH21EwWMTmpc-RUo-202" value="" style="endArrow=none;html=1;rounded=0;fontSize=12;startSize=8;endSize=8;curved=1;entryX=0.25;entryY=1;entryDx=0;entryDy=0;exitX=0.468;exitY=0.029;exitDx=0;exitDy=0;exitPerimeter=0;" edge="1" parent="1" source="E2_kgH21EwWMTmpc-RUo-191" target="E2_kgH21EwWMTmpc-RUo-130">
          <mxGeometry width="50" height="50" relative="1" as="geometry">
            <mxPoint x="3752.5" y="390" as="sourcePoint" />
            <mxPoint x="3802.5" y="340" as="targetPoint" />
          </mxGeometry>
        </mxCell>
        <mxCell id="E2_kgH21EwWMTmpc-RUo-203" value="" style="shape=waypoint;sketch=0;fillStyle=solid;size=6;pointerEvents=1;points=[];fillColor=none;resizable=0;rotatable=0;perimeter=centerPerimeter;snapToPoint=1;fontSize=16;" vertex="1" parent="1">
          <mxGeometry x="3222.5" y="300" width="20" height="20" as="geometry" />
        </mxCell>
        <mxCell id="E2_kgH21EwWMTmpc-RUo-204" value="" style="endArrow=none;html=1;rounded=0;fontSize=12;startSize=8;endSize=8;curved=1;entryX=0;entryY=1;entryDx=0;entryDy=0;exitX=0.496;exitY=0.075;exitDx=0;exitDy=0;exitPerimeter=0;" edge="1" parent="1" source="E2_kgH21EwWMTmpc-RUo-193" target="E2_kgH21EwWMTmpc-RUo-121">
          <mxGeometry width="50" height="50" relative="1" as="geometry">
            <mxPoint x="3222.5" y="390" as="sourcePoint" />
            <mxPoint x="3272.5" y="340" as="targetPoint" />
          </mxGeometry>
        </mxCell>
        <mxCell id="E2_kgH21EwWMTmpc-RUo-205" value="" style="endArrow=none;html=1;rounded=0;fontSize=12;startSize=8;endSize=8;curved=1;entryX=-0.018;entryY=0.491;entryDx=0;entryDy=0;entryPerimeter=0;exitX=1;exitY=0.5;exitDx=0;exitDy=0;" edge="1" parent="1" source="E2_kgH21EwWMTmpc-RUo-121" target="E2_kgH21EwWMTmpc-RUo-194">
          <mxGeometry width="50" height="50" relative="1" as="geometry">
            <mxPoint x="3432.5" y="390" as="sourcePoint" />
            <mxPoint x="3482.5" y="340" as="targetPoint" />
          </mxGeometry>
        </mxCell>
        <mxCell id="E2_kgH21EwWMTmpc-RUo-206" value="" style="endArrow=none;html=1;rounded=0;fontSize=12;startSize=8;endSize=8;curved=1;exitX=0.777;exitY=1;exitDx=0;exitDy=0;exitPerimeter=0;entryX=0.526;entryY=0.016;entryDx=0;entryDy=0;entryPerimeter=0;" edge="1" parent="1" source="E2_kgH21EwWMTmpc-RUo-121" target="E2_kgH21EwWMTmpc-RUo-195">
          <mxGeometry width="50" height="50" relative="1" as="geometry">
            <mxPoint x="3422.5" y="390" as="sourcePoint" />
            <mxPoint x="3472.5" y="340" as="targetPoint" />
          </mxGeometry>
        </mxCell>
        <mxCell id="E2_kgH21EwWMTmpc-RUo-207" value="" style="endArrow=none;html=1;rounded=0;fontSize=12;startSize=8;endSize=8;curved=1;entryX=0.75;entryY=1;entryDx=0;entryDy=0;" edge="1" parent="1" source="E2_kgH21EwWMTmpc-RUo-208" target="E2_kgH21EwWMTmpc-RUo-161">
          <mxGeometry width="50" height="50" relative="1" as="geometry">
            <mxPoint x="3432.5" y="630" as="sourcePoint" />
            <mxPoint x="3462.5" y="620" as="targetPoint" />
          </mxGeometry>
        </mxCell>
        <mxCell id="E2_kgH21EwWMTmpc-RUo-208" value="" style="shape=waypoint;sketch=0;fillStyle=solid;size=6;pointerEvents=1;points=[];fillColor=none;resizable=0;rotatable=0;perimeter=centerPerimeter;snapToPoint=1;fontSize=16;" vertex="1" parent="1">
          <mxGeometry x="3422.5" y="620" width="20" height="20" as="geometry" />
        </mxCell>
        <mxCell id="E2_kgH21EwWMTmpc-RUo-209" value="" style="endArrow=none;html=1;rounded=0;fontSize=12;startSize=8;endSize=8;curved=1;entryX=0.25;entryY=1;entryDx=0;entryDy=0;" edge="1" parent="1" target="E2_kgH21EwWMTmpc-RUo-140">
          <mxGeometry width="50" height="50" relative="1" as="geometry">
            <mxPoint x="3762.5" y="650" as="sourcePoint" />
            <mxPoint x="3792.5" y="630" as="targetPoint" />
          </mxGeometry>
        </mxCell>
        <mxCell id="E2_kgH21EwWMTmpc-RUo-210" value="" style="shape=waypoint;sketch=0;fillStyle=solid;size=6;pointerEvents=1;points=[];fillColor=none;resizable=0;rotatable=0;perimeter=centerPerimeter;snapToPoint=1;fontSize=16;" vertex="1" parent="1">
          <mxGeometry x="3752.5" y="640" width="20" height="20" as="geometry" />
        </mxCell>
        <mxCell id="E2_kgH21EwWMTmpc-RUo-211" value="(1,N)" style="text;html=1;strokeColor=none;fillColor=none;align=center;verticalAlign=middle;whiteSpace=wrap;rounded=0;fontSize=16;" vertex="1" parent="1">
          <mxGeometry x="3577.5" y="30" width="60" height="30" as="geometry" />
        </mxCell>
        <mxCell id="E2_kgH21EwWMTmpc-RUo-212" value="(1,N)" style="text;html=1;strokeColor=none;fillColor=none;align=center;verticalAlign=middle;whiteSpace=wrap;rounded=0;fontSize=16;" vertex="1" parent="1">
          <mxGeometry x="3292.5" y="345" width="60" height="30" as="geometry" />
        </mxCell>
        <mxCell id="E2_kgH21EwWMTmpc-RUo-213" value="(1;N)" style="text;html=1;strokeColor=none;fillColor=none;align=center;verticalAlign=middle;whiteSpace=wrap;rounded=0;fontSize=16;" vertex="1" parent="1">
          <mxGeometry x="3817.5" y="350" width="60" height="30" as="geometry" />
        </mxCell>
        <mxCell id="E2_kgH21EwWMTmpc-RUo-214" value="(1,N)" style="text;html=1;strokeColor=none;fillColor=none;align=center;verticalAlign=middle;whiteSpace=wrap;rounded=0;fontSize=16;" vertex="1" parent="1">
          <mxGeometry x="3292.5" y="610" width="60" height="30" as="geometry" />
        </mxCell>
        <mxCell id="E2_kgH21EwWMTmpc-RUo-215" value="(1,N)" style="text;whiteSpace=wrap;html=1;fontSize=16;" vertex="1" parent="1">
          <mxGeometry x="3887.5" y="630" width="35" height="40" as="geometry" />
        </mxCell>
        <mxCell id="E2_kgH21EwWMTmpc-RUo-216" value="&lt;span style=&quot;color: rgb(0, 0, 0); font-family: Helvetica; font-size: 16px; font-style: normal; font-variant-ligatures: normal; font-variant-caps: normal; font-weight: 400; letter-spacing: normal; orphans: 2; text-align: center; text-indent: 0px; text-transform: none; widows: 2; word-spacing: 0px; -webkit-text-stroke-width: 0px; background-color: rgb(251, 251, 251); text-decoration-thickness: initial; text-decoration-style: initial; text-decoration-color: initial; float: none; display: inline !important;&quot;&gt;(1,N)&lt;/span&gt;" style="text;whiteSpace=wrap;html=1;fontSize=16;" vertex="1" parent="1">
          <mxGeometry x="3582.5" y="740" width="35" height="40" as="geometry" />
        </mxCell>
      </root>
    </mxGraphModel>
  </diagram>
</mxfile>
